<svg xmlns="http://www.w3.org/2000/svg" version="1.1" viewBox="60.71 14.96 46.04 52.8" fill="#FF6060">
    <path d="m94.84 31.06a0.3 0.3 0 0 0-0.4 0.11q-4.28 7.56-8.59 15.24-1.02 1.81-1.01 3.9 0.06 8.02 0.02 15.41a2.04 2.03-74.6 0 1-3.07 1.75l-20.46-12.05q-0.36-0.2-0.36-0.61l-0.26-18.62q0-0.53 0.26-0.99l11.26-19.71q0.48-0.84 1.31-0.36l32.74 19.06a0.96 0.95 15.6 0 1 0.47 0.82v18.22q0 0.75-0.65 1.11l-0.96 0.54q-0.64 0.36-0.64-0.37v-17.35q0-0.53-0.47-0.8l-9.19-5.3z"/>
    <path d="m97.35 47.32 0.04 11.72a0.35 0.35 0 0 1-0.17 0.3l-4.69 2.8a0.35 0.35 0 0 1-0.53-0.3v-11.7a0.35 0.35 0 0 1 0.17-0.3l4.65-2.82a0.35 0.35 0 0 1 0.53 0.3z"/>
</svg>